<mxfile host="app.diagrams.net" modified="2022-09-14T09:20:35.431Z" agent="5.0 (Windows NT 10.0; Win64; x64) AppleWebKit/537.36 (KHTML, like Gecko) Chrome/105.0.0.0 Safari/537.36" etag="b2qOxwhEtduc2xbk1V_t" version="20.3.0" type="github">
  <diagram id="fot2uiCDMkdWKJzB2kUI" name="Page-1">
    <mxGraphModel dx="1378" dy="758" grid="1" gridSize="10" guides="1" tooltips="1" connect="1" arrows="1" fold="1" page="1" pageScale="1" pageWidth="827" pageHeight="1169" math="0" shadow="0">
      <root>
        <mxCell id="0" />
        <mxCell id="1" parent="0" />
        <mxCell id="LApeoLwm_qRs-wCRrDOX-11" value="" style="shape=waypoint;sketch=0;fillStyle=solid;size=6;pointerEvents=1;points=[];fillColor=#1ba1e2;resizable=0;rotatable=0;perimeter=centerPerimeter;snapToPoint=1;fontSize=10;fontColor=#ffffff;strokeColor=#006EAF;" vertex="1" parent="1">
          <mxGeometry x="700" y="170" width="40" height="40" as="geometry" />
        </mxCell>
        <mxCell id="LApeoLwm_qRs-wCRrDOX-27" value="" style="shape=waypoint;sketch=0;fillStyle=solid;size=6;pointerEvents=1;points=[];fillColor=#60a917;resizable=0;rotatable=0;perimeter=centerPerimeter;snapToPoint=1;fontSize=10;labelBackgroundColor=#99FF99;strokeColor=#2D7600;fontColor=#ffffff;" vertex="1" parent="1">
          <mxGeometry x="105" y="800" width="40" height="40" as="geometry" />
        </mxCell>
        <mxCell id="55DzPYi0vMfy24qsopn5-3" value="Landing Page" style="ellipse;whiteSpace=wrap;html=1;" parent="1" vertex="1">
          <mxGeometry x="320" width="160" height="80" as="geometry" />
        </mxCell>
        <mxCell id="55DzPYi0vMfy24qsopn5-36" style="edgeStyle=orthogonalEdgeStyle;rounded=0;orthogonalLoop=1;jettySize=auto;html=1;exitX=0.5;exitY=0;exitDx=0;exitDy=0;entryX=0.5;entryY=1;entryDx=0;entryDy=0;" parent="1" source="55DzPYi0vMfy24qsopn5-4" target="55DzPYi0vMfy24qsopn5-3" edge="1">
          <mxGeometry relative="1" as="geometry" />
        </mxCell>
        <mxCell id="55DzPYi0vMfy24qsopn5-4" value="Beranda" style="ellipse;whiteSpace=wrap;html=1;" parent="1" vertex="1">
          <mxGeometry x="40" y="120" width="80" height="40" as="geometry" />
        </mxCell>
        <mxCell id="55DzPYi0vMfy24qsopn5-37" style="edgeStyle=orthogonalEdgeStyle;rounded=0;orthogonalLoop=1;jettySize=auto;html=1;exitX=0.5;exitY=0;exitDx=0;exitDy=0;" parent="1" source="55DzPYi0vMfy24qsopn5-5" edge="1">
          <mxGeometry relative="1" as="geometry">
            <mxPoint x="400" y="80" as="targetPoint" />
          </mxGeometry>
        </mxCell>
        <mxCell id="55DzPYi0vMfy24qsopn5-5" value="Tentang" style="ellipse;whiteSpace=wrap;html=1;" parent="1" vertex="1">
          <mxGeometry x="160" y="120" width="80" height="40" as="geometry" />
        </mxCell>
        <mxCell id="55DzPYi0vMfy24qsopn5-38" style="edgeStyle=orthogonalEdgeStyle;rounded=0;orthogonalLoop=1;jettySize=auto;html=1;exitX=0.5;exitY=0;exitDx=0;exitDy=0;entryX=0.5;entryY=1;entryDx=0;entryDy=0;" parent="1" source="55DzPYi0vMfy24qsopn5-6" target="55DzPYi0vMfy24qsopn5-3" edge="1">
          <mxGeometry relative="1" as="geometry" />
        </mxCell>
        <mxCell id="55DzPYi0vMfy24qsopn5-6" value="Blog" style="ellipse;whiteSpace=wrap;html=1;" parent="1" vertex="1">
          <mxGeometry x="280" y="120" width="80" height="40" as="geometry" />
        </mxCell>
        <mxCell id="55DzPYi0vMfy24qsopn5-39" style="edgeStyle=orthogonalEdgeStyle;rounded=0;orthogonalLoop=1;jettySize=auto;html=1;exitX=0.5;exitY=0;exitDx=0;exitDy=0;" parent="1" source="55DzPYi0vMfy24qsopn5-8" edge="1">
          <mxGeometry relative="1" as="geometry">
            <mxPoint x="400" y="80" as="targetPoint" />
          </mxGeometry>
        </mxCell>
        <mxCell id="55DzPYi0vMfy24qsopn5-8" value="Kontak" style="ellipse;whiteSpace=wrap;html=1;" parent="1" vertex="1">
          <mxGeometry x="440" y="120" width="80" height="40" as="geometry" />
        </mxCell>
        <mxCell id="55DzPYi0vMfy24qsopn5-40" style="edgeStyle=orthogonalEdgeStyle;rounded=0;orthogonalLoop=1;jettySize=auto;html=1;exitX=0.5;exitY=0;exitDx=0;exitDy=0;entryX=0.5;entryY=1;entryDx=0;entryDy=0;" parent="1" source="55DzPYi0vMfy24qsopn5-9" target="55DzPYi0vMfy24qsopn5-3" edge="1">
          <mxGeometry relative="1" as="geometry" />
        </mxCell>
        <mxCell id="55DzPYi0vMfy24qsopn5-9" value="PPDB" style="ellipse;whiteSpace=wrap;html=1;" parent="1" vertex="1">
          <mxGeometry x="560" y="120" width="80" height="40" as="geometry" />
        </mxCell>
        <mxCell id="55DzPYi0vMfy24qsopn5-41" style="edgeStyle=orthogonalEdgeStyle;rounded=0;orthogonalLoop=1;jettySize=auto;html=1;exitX=0.5;exitY=0;exitDx=0;exitDy=0;entryX=0.5;entryY=1;entryDx=0;entryDy=0;" parent="1" source="55DzPYi0vMfy24qsopn5-10" target="55DzPYi0vMfy24qsopn5-3" edge="1">
          <mxGeometry relative="1" as="geometry" />
        </mxCell>
        <mxCell id="LApeoLwm_qRs-wCRrDOX-12" style="edgeStyle=orthogonalEdgeStyle;rounded=0;orthogonalLoop=1;jettySize=auto;html=1;exitX=0.5;exitY=1;exitDx=0;exitDy=0;entryX=0.5;entryY=0.396;entryDx=0;entryDy=0;entryPerimeter=0;fontSize=10;" edge="1" parent="1" source="55DzPYi0vMfy24qsopn5-10" target="LApeoLwm_qRs-wCRrDOX-11">
          <mxGeometry relative="1" as="geometry" />
        </mxCell>
        <mxCell id="55DzPYi0vMfy24qsopn5-10" value="Admin" style="ellipse;whiteSpace=wrap;html=1;" parent="1" vertex="1">
          <mxGeometry x="680" y="120" width="80" height="40" as="geometry" />
        </mxCell>
        <mxCell id="55DzPYi0vMfy24qsopn5-24" style="edgeStyle=orthogonalEdgeStyle;rounded=0;orthogonalLoop=1;jettySize=auto;html=1;exitX=0.5;exitY=0;exitDx=0;exitDy=0;" parent="1" source="55DzPYi0vMfy24qsopn5-11" edge="1">
          <mxGeometry relative="1" as="geometry">
            <mxPoint x="600" y="160" as="targetPoint" />
          </mxGeometry>
        </mxCell>
        <mxCell id="55DzPYi0vMfy24qsopn5-11" value="Beranda PPDB" style="ellipse;whiteSpace=wrap;html=1;fontSize=10;" parent="1" vertex="1">
          <mxGeometry x="440" y="280" width="80" height="40" as="geometry" />
        </mxCell>
        <mxCell id="55DzPYi0vMfy24qsopn5-23" style="edgeStyle=orthogonalEdgeStyle;rounded=0;orthogonalLoop=1;jettySize=auto;html=1;exitX=0.5;exitY=0;exitDx=0;exitDy=0;entryX=0.5;entryY=1;entryDx=0;entryDy=0;" parent="1" source="55DzPYi0vMfy24qsopn5-12" target="55DzPYi0vMfy24qsopn5-9" edge="1">
          <mxGeometry relative="1" as="geometry" />
        </mxCell>
        <mxCell id="55DzPYi0vMfy24qsopn5-12" value="Daftar" style="ellipse;whiteSpace=wrap;html=1;" parent="1" vertex="1">
          <mxGeometry x="560" y="280" width="80" height="40" as="geometry" />
        </mxCell>
        <mxCell id="55DzPYi0vMfy24qsopn5-25" style="edgeStyle=orthogonalEdgeStyle;rounded=0;orthogonalLoop=1;jettySize=auto;html=1;" parent="1" source="55DzPYi0vMfy24qsopn5-13" edge="1">
          <mxGeometry relative="1" as="geometry">
            <mxPoint x="600" y="160" as="targetPoint" />
            <Array as="points">
              <mxPoint x="720" y="220" />
              <mxPoint x="600" y="220" />
            </Array>
          </mxGeometry>
        </mxCell>
        <mxCell id="55DzPYi0vMfy24qsopn5-13" value="Masuk" style="ellipse;whiteSpace=wrap;html=1;" parent="1" vertex="1">
          <mxGeometry x="680" y="280" width="80" height="40" as="geometry" />
        </mxCell>
        <mxCell id="55DzPYi0vMfy24qsopn5-15" style="edgeStyle=orthogonalEdgeStyle;rounded=0;orthogonalLoop=1;jettySize=auto;html=1;entryX=0.5;entryY=1;entryDx=0;entryDy=0;" parent="1" source="55DzPYi0vMfy24qsopn5-14" target="55DzPYi0vMfy24qsopn5-4" edge="1">
          <mxGeometry relative="1" as="geometry" />
        </mxCell>
        <mxCell id="55DzPYi0vMfy24qsopn5-20" style="edgeStyle=orthogonalEdgeStyle;rounded=0;orthogonalLoop=1;jettySize=auto;html=1;entryX=0.5;entryY=1;entryDx=0;entryDy=0;exitX=1;exitY=1;exitDx=0;exitDy=0;exitPerimeter=0;" parent="1" source="55DzPYi0vMfy24qsopn5-14" target="55DzPYi0vMfy24qsopn5-11" edge="1">
          <mxGeometry relative="1" as="geometry">
            <Array as="points">
              <mxPoint x="40" y="360" />
              <mxPoint x="480" y="360" />
            </Array>
          </mxGeometry>
        </mxCell>
        <mxCell id="55DzPYi0vMfy24qsopn5-14" value="Actor" style="shape=umlActor;verticalLabelPosition=bottom;verticalAlign=top;html=1;outlineConnect=0;" parent="1" vertex="1">
          <mxGeometry y="240" width="40" height="70" as="geometry" />
        </mxCell>
        <mxCell id="55DzPYi0vMfy24qsopn5-16" style="edgeStyle=orthogonalEdgeStyle;rounded=0;orthogonalLoop=1;jettySize=auto;html=1;entryX=0.5;entryY=1;entryDx=0;entryDy=0;exitX=0.5;exitY=0;exitDx=0;exitDy=0;exitPerimeter=0;" parent="1" source="55DzPYi0vMfy24qsopn5-14" target="55DzPYi0vMfy24qsopn5-5" edge="1">
          <mxGeometry relative="1" as="geometry">
            <mxPoint x="30" y="250" as="sourcePoint" />
            <mxPoint x="90" y="170" as="targetPoint" />
          </mxGeometry>
        </mxCell>
        <mxCell id="55DzPYi0vMfy24qsopn5-17" style="edgeStyle=orthogonalEdgeStyle;rounded=0;orthogonalLoop=1;jettySize=auto;html=1;entryX=0.5;entryY=1;entryDx=0;entryDy=0;" parent="1" target="55DzPYi0vMfy24qsopn5-6" edge="1">
          <mxGeometry relative="1" as="geometry">
            <mxPoint x="20" y="240" as="sourcePoint" />
            <mxPoint x="100" y="180" as="targetPoint" />
            <Array as="points">
              <mxPoint x="20" y="200" />
              <mxPoint x="320" y="200" />
            </Array>
          </mxGeometry>
        </mxCell>
        <mxCell id="55DzPYi0vMfy24qsopn5-18" style="edgeStyle=orthogonalEdgeStyle;rounded=0;orthogonalLoop=1;jettySize=auto;html=1;entryX=0.5;entryY=1;entryDx=0;entryDy=0;exitX=0.5;exitY=0;exitDx=0;exitDy=0;exitPerimeter=0;" parent="1" source="55DzPYi0vMfy24qsopn5-14" target="55DzPYi0vMfy24qsopn5-8" edge="1">
          <mxGeometry relative="1" as="geometry">
            <mxPoint x="50" y="270" as="sourcePoint" />
            <mxPoint x="110" y="190" as="targetPoint" />
          </mxGeometry>
        </mxCell>
        <mxCell id="55DzPYi0vMfy24qsopn5-21" style="edgeStyle=orthogonalEdgeStyle;rounded=0;orthogonalLoop=1;jettySize=auto;html=1;entryX=0.5;entryY=1;entryDx=0;entryDy=0;startArrow=none;" parent="1" source="55DzPYi0vMfy24qsopn5-31" target="55DzPYi0vMfy24qsopn5-12" edge="1">
          <mxGeometry relative="1" as="geometry">
            <mxPoint x="40" y="310" as="sourcePoint" />
            <mxPoint x="490" y="290" as="targetPoint" />
            <Array as="points" />
          </mxGeometry>
        </mxCell>
        <mxCell id="55DzPYi0vMfy24qsopn5-22" style="edgeStyle=orthogonalEdgeStyle;rounded=0;orthogonalLoop=1;jettySize=auto;html=1;entryX=0.5;entryY=1;entryDx=0;entryDy=0;exitX=1;exitY=1;exitDx=0;exitDy=0;exitPerimeter=0;" parent="1" source="55DzPYi0vMfy24qsopn5-14" target="55DzPYi0vMfy24qsopn5-13" edge="1">
          <mxGeometry relative="1" as="geometry">
            <mxPoint x="60" y="330" as="sourcePoint" />
            <mxPoint x="500" y="300" as="targetPoint" />
            <Array as="points">
              <mxPoint x="40" y="360" />
              <mxPoint x="720" y="360" />
            </Array>
          </mxGeometry>
        </mxCell>
        <mxCell id="55DzPYi0vMfy24qsopn5-26" value="Melihat" style="text;html=1;align=center;verticalAlign=middle;resizable=0;points=[];autosize=1;strokeColor=none;fillColor=none;" parent="1" vertex="1">
          <mxGeometry x="50" y="170" width="60" height="30" as="geometry" />
        </mxCell>
        <mxCell id="55DzPYi0vMfy24qsopn5-27" value="Melihat" style="text;html=1;align=center;verticalAlign=middle;resizable=0;points=[];autosize=1;strokeColor=none;fillColor=none;" parent="1" vertex="1">
          <mxGeometry x="170" y="170" width="60" height="30" as="geometry" />
        </mxCell>
        <mxCell id="55DzPYi0vMfy24qsopn5-28" value="Melihat" style="text;html=1;align=center;verticalAlign=middle;resizable=0;points=[];autosize=1;strokeColor=none;fillColor=none;" parent="1" vertex="1">
          <mxGeometry x="290" y="170" width="60" height="30" as="geometry" />
        </mxCell>
        <mxCell id="55DzPYi0vMfy24qsopn5-29" value="Melihat" style="text;html=1;align=center;verticalAlign=middle;resizable=0;points=[];autosize=1;strokeColor=none;fillColor=none;" parent="1" vertex="1">
          <mxGeometry x="450" y="170" width="60" height="30" as="geometry" />
        </mxCell>
        <mxCell id="55DzPYi0vMfy24qsopn5-30" value="Melihat" style="text;html=1;align=center;verticalAlign=middle;resizable=0;points=[];autosize=1;strokeColor=none;fillColor=none;" parent="1" vertex="1">
          <mxGeometry x="450" y="330" width="60" height="30" as="geometry" />
        </mxCell>
        <mxCell id="55DzPYi0vMfy24qsopn5-31" value="Melakukan" style="text;html=1;align=center;verticalAlign=middle;resizable=0;points=[];autosize=1;strokeColor=none;fillColor=none;" parent="1" vertex="1">
          <mxGeometry x="560" y="330" width="80" height="30" as="geometry" />
        </mxCell>
        <mxCell id="55DzPYi0vMfy24qsopn5-32" value="" style="edgeStyle=orthogonalEdgeStyle;rounded=0;orthogonalLoop=1;jettySize=auto;html=1;entryX=0.5;entryY=1;entryDx=0;entryDy=0;endArrow=none;" parent="1" target="55DzPYi0vMfy24qsopn5-31" edge="1">
          <mxGeometry relative="1" as="geometry">
            <mxPoint x="40" y="310" as="sourcePoint" />
            <mxPoint x="600" y="320" as="targetPoint" />
            <Array as="points">
              <mxPoint x="40" y="360" />
              <mxPoint x="600" y="360" />
            </Array>
          </mxGeometry>
        </mxCell>
        <mxCell id="55DzPYi0vMfy24qsopn5-33" value="Melihat" style="text;html=1;align=center;verticalAlign=middle;resizable=0;points=[];autosize=1;strokeColor=none;fillColor=none;" parent="1" vertex="1">
          <mxGeometry x="690" y="330" width="60" height="30" as="geometry" />
        </mxCell>
        <mxCell id="LApeoLwm_qRs-wCRrDOX-66" value="" style="edgeStyle=orthogonalEdgeStyle;rounded=0;orthogonalLoop=1;jettySize=auto;html=1;fontSize=10;fontColor=#33FF33;" edge="1" parent="1" source="LApeoLwm_qRs-wCRrDOX-1" target="LApeoLwm_qRs-wCRrDOX-7">
          <mxGeometry relative="1" as="geometry" />
        </mxCell>
        <object label="Actor" id="LApeoLwm_qRs-wCRrDOX-1">
          <mxCell style="shape=umlActor;verticalLabelPosition=bottom;verticalAlign=top;html=1;outlineConnect=0;" vertex="1" parent="1">
            <mxGeometry x="5" y="725" width="40" height="70" as="geometry" />
          </mxCell>
        </object>
        <mxCell id="LApeoLwm_qRs-wCRrDOX-4" value="User" style="text;html=1;align=center;verticalAlign=middle;resizable=0;points=[];autosize=1;strokeColor=none;fillColor=none;fontSize=10;" vertex="1" parent="1">
          <mxGeometry y="330" width="40" height="30" as="geometry" />
        </mxCell>
        <mxCell id="LApeoLwm_qRs-wCRrDOX-5" value="Admin" style="text;html=1;align=center;verticalAlign=middle;resizable=0;points=[];autosize=1;strokeColor=none;fillColor=none;fontSize=10;" vertex="1" parent="1">
          <mxGeometry y="810" width="50" height="30" as="geometry" />
        </mxCell>
        <mxCell id="LApeoLwm_qRs-wCRrDOX-28" style="edgeStyle=orthogonalEdgeStyle;rounded=0;orthogonalLoop=1;jettySize=auto;html=1;entryX=0.6;entryY=0.5;entryDx=0;entryDy=0;entryPerimeter=0;fontSize=10;exitX=0.5;exitY=1;exitDx=0;exitDy=0;" edge="1" parent="1" source="LApeoLwm_qRs-wCRrDOX-7" target="LApeoLwm_qRs-wCRrDOX-27">
          <mxGeometry relative="1" as="geometry" />
        </mxCell>
        <mxCell id="LApeoLwm_qRs-wCRrDOX-68" value="" style="edgeStyle=orthogonalEdgeStyle;rounded=0;orthogonalLoop=1;jettySize=auto;html=1;fontSize=10;fontColor=#33FF33;" edge="1" parent="1" source="LApeoLwm_qRs-wCRrDOX-7" target="LApeoLwm_qRs-wCRrDOX-15">
          <mxGeometry relative="1" as="geometry" />
        </mxCell>
        <mxCell id="LApeoLwm_qRs-wCRrDOX-69" style="edgeStyle=orthogonalEdgeStyle;rounded=0;orthogonalLoop=1;jettySize=auto;html=1;entryX=0;entryY=0.5;entryDx=0;entryDy=0;fontSize=10;fontColor=#33FF33;" edge="1" parent="1" source="LApeoLwm_qRs-wCRrDOX-7" target="LApeoLwm_qRs-wCRrDOX-13">
          <mxGeometry relative="1" as="geometry" />
        </mxCell>
        <mxCell id="LApeoLwm_qRs-wCRrDOX-70" style="edgeStyle=orthogonalEdgeStyle;rounded=0;orthogonalLoop=1;jettySize=auto;html=1;entryX=0;entryY=0.5;entryDx=0;entryDy=0;fontSize=10;fontColor=#33FF33;" edge="1" parent="1" source="LApeoLwm_qRs-wCRrDOX-7" target="LApeoLwm_qRs-wCRrDOX-14">
          <mxGeometry relative="1" as="geometry" />
        </mxCell>
        <mxCell id="LApeoLwm_qRs-wCRrDOX-71" style="edgeStyle=orthogonalEdgeStyle;rounded=0;orthogonalLoop=1;jettySize=auto;html=1;entryX=0;entryY=0.5;entryDx=0;entryDy=0;fontSize=10;fontColor=#33FF33;" edge="1" parent="1" source="LApeoLwm_qRs-wCRrDOX-7" target="LApeoLwm_qRs-wCRrDOX-16">
          <mxGeometry relative="1" as="geometry" />
        </mxCell>
        <mxCell id="LApeoLwm_qRs-wCRrDOX-72" style="edgeStyle=orthogonalEdgeStyle;rounded=0;orthogonalLoop=1;jettySize=auto;html=1;entryX=0;entryY=0.5;entryDx=0;entryDy=0;fontSize=10;fontColor=#33FF33;" edge="1" parent="1" source="LApeoLwm_qRs-wCRrDOX-7" target="LApeoLwm_qRs-wCRrDOX-17">
          <mxGeometry relative="1" as="geometry" />
        </mxCell>
        <mxCell id="LApeoLwm_qRs-wCRrDOX-73" style="edgeStyle=orthogonalEdgeStyle;rounded=0;orthogonalLoop=1;jettySize=auto;html=1;entryX=0;entryY=0.5;entryDx=0;entryDy=0;fontSize=10;fontColor=#33FF33;" edge="1" parent="1" source="LApeoLwm_qRs-wCRrDOX-7" target="LApeoLwm_qRs-wCRrDOX-18">
          <mxGeometry relative="1" as="geometry" />
        </mxCell>
        <mxCell id="LApeoLwm_qRs-wCRrDOX-7" value="Admin" style="ellipse;whiteSpace=wrap;html=1;" vertex="1" parent="1">
          <mxGeometry x="85" y="740" width="80" height="40" as="geometry" />
        </mxCell>
        <mxCell id="LApeoLwm_qRs-wCRrDOX-10" value="" style="edgeStyle=orthogonalEdgeStyle;rounded=0;orthogonalLoop=1;jettySize=auto;html=1;fontSize=10;" edge="1" parent="1" target="LApeoLwm_qRs-wCRrDOX-7">
          <mxGeometry relative="1" as="geometry">
            <mxPoint x="125" y="710" as="sourcePoint" />
          </mxGeometry>
        </mxCell>
        <mxCell id="LApeoLwm_qRs-wCRrDOX-9" value="" style="shape=waypoint;sketch=0;fillStyle=solid;size=6;pointerEvents=1;points=[];fillColor=#1ba1e2;resizable=0;rotatable=0;perimeter=centerPerimeter;snapToPoint=1;fontSize=10;fontColor=#ffffff;strokeColor=#006EAF;" vertex="1" parent="1">
          <mxGeometry x="105" y="690" width="40" height="40" as="geometry" />
        </mxCell>
        <mxCell id="LApeoLwm_qRs-wCRrDOX-79" value="" style="edgeStyle=orthogonalEdgeStyle;rounded=0;orthogonalLoop=1;jettySize=auto;html=1;fontSize=10;fontColor=#33FF33;" edge="1" parent="1" source="LApeoLwm_qRs-wCRrDOX-13" target="LApeoLwm_qRs-wCRrDOX-76">
          <mxGeometry relative="1" as="geometry" />
        </mxCell>
        <mxCell id="LApeoLwm_qRs-wCRrDOX-80" style="edgeStyle=orthogonalEdgeStyle;rounded=0;orthogonalLoop=1;jettySize=auto;html=1;entryX=0;entryY=0.5;entryDx=0;entryDy=0;fontSize=10;fontColor=#33FF33;" edge="1" parent="1" source="LApeoLwm_qRs-wCRrDOX-13" target="LApeoLwm_qRs-wCRrDOX-74">
          <mxGeometry relative="1" as="geometry">
            <Array as="points">
              <mxPoint x="300" y="520" />
              <mxPoint x="300" y="425" />
            </Array>
          </mxGeometry>
        </mxCell>
        <mxCell id="LApeoLwm_qRs-wCRrDOX-81" style="edgeStyle=orthogonalEdgeStyle;rounded=0;orthogonalLoop=1;jettySize=auto;html=1;entryX=0;entryY=0.5;entryDx=0;entryDy=0;fontSize=10;fontColor=#33FF33;" edge="1" parent="1" source="LApeoLwm_qRs-wCRrDOX-13" target="LApeoLwm_qRs-wCRrDOX-75">
          <mxGeometry relative="1" as="geometry">
            <Array as="points">
              <mxPoint x="300" y="520" />
              <mxPoint x="300" y="475" />
            </Array>
          </mxGeometry>
        </mxCell>
        <mxCell id="LApeoLwm_qRs-wCRrDOX-82" style="edgeStyle=orthogonalEdgeStyle;rounded=0;orthogonalLoop=1;jettySize=auto;html=1;entryX=0;entryY=0.5;entryDx=0;entryDy=0;fontSize=10;fontColor=#33FF33;" edge="1" parent="1" source="LApeoLwm_qRs-wCRrDOX-13" target="LApeoLwm_qRs-wCRrDOX-77">
          <mxGeometry relative="1" as="geometry">
            <Array as="points">
              <mxPoint x="300" y="520" />
              <mxPoint x="300" y="565" />
            </Array>
          </mxGeometry>
        </mxCell>
        <mxCell id="LApeoLwm_qRs-wCRrDOX-83" style="edgeStyle=orthogonalEdgeStyle;rounded=0;orthogonalLoop=1;jettySize=auto;html=1;entryX=0;entryY=0.5;entryDx=0;entryDy=0;fontSize=10;fontColor=#33FF33;" edge="1" parent="1" source="LApeoLwm_qRs-wCRrDOX-13" target="LApeoLwm_qRs-wCRrDOX-78">
          <mxGeometry relative="1" as="geometry">
            <Array as="points">
              <mxPoint x="300" y="520" />
              <mxPoint x="300" y="615" />
            </Array>
          </mxGeometry>
        </mxCell>
        <mxCell id="LApeoLwm_qRs-wCRrDOX-13" value="&lt;font style=&quot;font-size: 10px;&quot;&gt;Kelembagaan&lt;/font&gt;" style="ellipse;whiteSpace=wrap;html=1;" vertex="1" parent="1">
          <mxGeometry x="205" y="500" width="80" height="40" as="geometry" />
        </mxCell>
        <mxCell id="LApeoLwm_qRs-wCRrDOX-90" style="edgeStyle=orthogonalEdgeStyle;rounded=0;orthogonalLoop=1;jettySize=auto;html=1;fontSize=10;fontColor=#33FF33;entryX=0;entryY=0.5;entryDx=0;entryDy=0;" edge="1" parent="1" source="LApeoLwm_qRs-wCRrDOX-14" target="LApeoLwm_qRs-wCRrDOX-88">
          <mxGeometry relative="1" as="geometry">
            <mxPoint x="410" y="660" as="targetPoint" />
          </mxGeometry>
        </mxCell>
        <mxCell id="LApeoLwm_qRs-wCRrDOX-91" style="edgeStyle=orthogonalEdgeStyle;rounded=0;orthogonalLoop=1;jettySize=auto;html=1;entryX=0;entryY=0.5;entryDx=0;entryDy=0;fontSize=10;fontColor=#33FF33;" edge="1" parent="1" source="LApeoLwm_qRs-wCRrDOX-14" target="LApeoLwm_qRs-wCRrDOX-87">
          <mxGeometry relative="1" as="geometry">
            <Array as="points">
              <mxPoint x="390" y="660" />
              <mxPoint x="390" y="615" />
            </Array>
          </mxGeometry>
        </mxCell>
        <mxCell id="LApeoLwm_qRs-wCRrDOX-92" style="edgeStyle=orthogonalEdgeStyle;rounded=0;orthogonalLoop=1;jettySize=auto;html=1;entryX=0;entryY=0.5;entryDx=0;entryDy=0;fontSize=10;fontColor=#33FF33;" edge="1" parent="1" source="LApeoLwm_qRs-wCRrDOX-14" target="LApeoLwm_qRs-wCRrDOX-89">
          <mxGeometry relative="1" as="geometry">
            <Array as="points">
              <mxPoint x="390" y="660" />
              <mxPoint x="390" y="705" />
            </Array>
          </mxGeometry>
        </mxCell>
        <mxCell id="LApeoLwm_qRs-wCRrDOX-14" value="Akademik" style="ellipse;whiteSpace=wrap;html=1;" vertex="1" parent="1">
          <mxGeometry x="205" y="640" width="80" height="40" as="geometry" />
        </mxCell>
        <mxCell id="LApeoLwm_qRs-wCRrDOX-96" style="edgeStyle=orthogonalEdgeStyle;rounded=0;orthogonalLoop=1;jettySize=auto;html=1;fontSize=10;fontColor=#33FF33;" edge="1" parent="1" source="LApeoLwm_qRs-wCRrDOX-15" target="LApeoLwm_qRs-wCRrDOX-94">
          <mxGeometry relative="1" as="geometry" />
        </mxCell>
        <mxCell id="LApeoLwm_qRs-wCRrDOX-97" style="edgeStyle=orthogonalEdgeStyle;rounded=0;orthogonalLoop=1;jettySize=auto;html=1;entryX=0;entryY=0.5;entryDx=0;entryDy=0;fontSize=10;fontColor=#33FF33;" edge="1" parent="1" source="LApeoLwm_qRs-wCRrDOX-15" target="LApeoLwm_qRs-wCRrDOX-93">
          <mxGeometry relative="1" as="geometry">
            <Array as="points">
              <mxPoint x="470" y="760" />
              <mxPoint x="470" y="715" />
            </Array>
          </mxGeometry>
        </mxCell>
        <mxCell id="LApeoLwm_qRs-wCRrDOX-98" style="edgeStyle=orthogonalEdgeStyle;rounded=0;orthogonalLoop=1;jettySize=auto;html=1;entryX=0;entryY=0.5;entryDx=0;entryDy=0;fontSize=10;fontColor=#33FF33;" edge="1" parent="1" source="LApeoLwm_qRs-wCRrDOX-15" target="LApeoLwm_qRs-wCRrDOX-95">
          <mxGeometry relative="1" as="geometry">
            <Array as="points">
              <mxPoint x="470" y="760" />
              <mxPoint x="470" y="805" />
            </Array>
          </mxGeometry>
        </mxCell>
        <mxCell id="LApeoLwm_qRs-wCRrDOX-15" value="Administrasi" style="ellipse;whiteSpace=wrap;html=1;" vertex="1" parent="1">
          <mxGeometry x="205" y="740" width="80" height="40" as="geometry" />
        </mxCell>
        <mxCell id="LApeoLwm_qRs-wCRrDOX-112" style="edgeStyle=orthogonalEdgeStyle;rounded=0;orthogonalLoop=1;jettySize=auto;html=1;entryX=0;entryY=0.5;entryDx=0;entryDy=0;fontSize=10;fontColor=#33FF33;" edge="1" parent="1" source="LApeoLwm_qRs-wCRrDOX-16" target="LApeoLwm_qRs-wCRrDOX-111">
          <mxGeometry relative="1" as="geometry">
            <Array as="points">
              <mxPoint x="550" y="880" />
              <mxPoint x="550" y="740" />
            </Array>
          </mxGeometry>
        </mxCell>
        <mxCell id="LApeoLwm_qRs-wCRrDOX-113" style="edgeStyle=orthogonalEdgeStyle;rounded=0;orthogonalLoop=1;jettySize=auto;html=1;entryX=0;entryY=0.5;entryDx=0;entryDy=0;fontSize=10;fontColor=#33FF33;" edge="1" parent="1" source="LApeoLwm_qRs-wCRrDOX-16" target="LApeoLwm_qRs-wCRrDOX-104">
          <mxGeometry relative="1" as="geometry">
            <Array as="points">
              <mxPoint x="550" y="880" />
              <mxPoint x="550" y="785" />
            </Array>
          </mxGeometry>
        </mxCell>
        <mxCell id="LApeoLwm_qRs-wCRrDOX-114" style="edgeStyle=orthogonalEdgeStyle;rounded=0;orthogonalLoop=1;jettySize=auto;html=1;entryX=0;entryY=0.5;entryDx=0;entryDy=0;fontSize=10;fontColor=#33FF33;" edge="1" parent="1" source="LApeoLwm_qRs-wCRrDOX-16" target="LApeoLwm_qRs-wCRrDOX-110">
          <mxGeometry relative="1" as="geometry">
            <Array as="points">
              <mxPoint x="550" y="880" />
              <mxPoint x="550" y="695" />
            </Array>
          </mxGeometry>
        </mxCell>
        <mxCell id="LApeoLwm_qRs-wCRrDOX-115" style="edgeStyle=orthogonalEdgeStyle;rounded=0;orthogonalLoop=1;jettySize=auto;html=1;entryX=0;entryY=0.5;entryDx=0;entryDy=0;fontSize=10;fontColor=#33FF33;" edge="1" parent="1" source="LApeoLwm_qRs-wCRrDOX-16" target="LApeoLwm_qRs-wCRrDOX-109">
          <mxGeometry relative="1" as="geometry">
            <Array as="points">
              <mxPoint x="550" y="880" />
              <mxPoint x="550" y="645" />
            </Array>
          </mxGeometry>
        </mxCell>
        <mxCell id="LApeoLwm_qRs-wCRrDOX-116" style="edgeStyle=orthogonalEdgeStyle;rounded=0;orthogonalLoop=1;jettySize=auto;html=1;entryX=0;entryY=0.5;entryDx=0;entryDy=0;fontSize=10;fontColor=#33FF33;" edge="1" parent="1" source="LApeoLwm_qRs-wCRrDOX-16" target="LApeoLwm_qRs-wCRrDOX-107">
          <mxGeometry relative="1" as="geometry">
            <Array as="points">
              <mxPoint x="550" y="880" />
              <mxPoint x="550" y="925" />
            </Array>
          </mxGeometry>
        </mxCell>
        <mxCell id="LApeoLwm_qRs-wCRrDOX-117" style="edgeStyle=orthogonalEdgeStyle;rounded=0;orthogonalLoop=1;jettySize=auto;html=1;entryX=0;entryY=0.5;entryDx=0;entryDy=0;fontSize=10;fontColor=#33FF33;" edge="1" parent="1" source="LApeoLwm_qRs-wCRrDOX-16" target="LApeoLwm_qRs-wCRrDOX-108">
          <mxGeometry relative="1" as="geometry">
            <Array as="points">
              <mxPoint x="550" y="880" />
              <mxPoint x="550" y="975" />
            </Array>
          </mxGeometry>
        </mxCell>
        <mxCell id="LApeoLwm_qRs-wCRrDOX-118" style="edgeStyle=orthogonalEdgeStyle;rounded=0;orthogonalLoop=1;jettySize=auto;html=1;entryX=0;entryY=0.5;entryDx=0;entryDy=0;fontSize=10;fontColor=#33FF33;" edge="1" parent="1" source="LApeoLwm_qRs-wCRrDOX-16" target="LApeoLwm_qRs-wCRrDOX-105">
          <mxGeometry relative="1" as="geometry">
            <Array as="points">
              <mxPoint x="550" y="880" />
              <mxPoint x="550" y="835" />
            </Array>
          </mxGeometry>
        </mxCell>
        <mxCell id="LApeoLwm_qRs-wCRrDOX-16" value="Siswa" style="ellipse;whiteSpace=wrap;html=1;" vertex="1" parent="1">
          <mxGeometry x="205" y="860" width="80" height="40" as="geometry" />
        </mxCell>
        <mxCell id="LApeoLwm_qRs-wCRrDOX-121" style="edgeStyle=orthogonalEdgeStyle;rounded=0;orthogonalLoop=1;jettySize=auto;html=1;entryX=0;entryY=0.5;entryDx=0;entryDy=0;fontSize=8;fontColor=#33FF33;" edge="1" parent="1" source="LApeoLwm_qRs-wCRrDOX-17" target="LApeoLwm_qRs-wCRrDOX-119">
          <mxGeometry relative="1" as="geometry">
            <Array as="points">
              <mxPoint x="290" y="1000" />
              <mxPoint x="290" y="975" />
            </Array>
          </mxGeometry>
        </mxCell>
        <mxCell id="LApeoLwm_qRs-wCRrDOX-122" style="edgeStyle=orthogonalEdgeStyle;rounded=0;orthogonalLoop=1;jettySize=auto;html=1;entryX=0;entryY=0.5;entryDx=0;entryDy=0;fontSize=8;fontColor=#33FF33;" edge="1" parent="1" source="LApeoLwm_qRs-wCRrDOX-17" target="LApeoLwm_qRs-wCRrDOX-120">
          <mxGeometry relative="1" as="geometry">
            <Array as="points">
              <mxPoint x="290" y="1000" />
              <mxPoint x="290" y="1025" />
            </Array>
          </mxGeometry>
        </mxCell>
        <mxCell id="LApeoLwm_qRs-wCRrDOX-17" value="Alumni" style="ellipse;whiteSpace=wrap;html=1;" vertex="1" parent="1">
          <mxGeometry x="205" y="980" width="80" height="40" as="geometry" />
        </mxCell>
        <mxCell id="LApeoLwm_qRs-wCRrDOX-126" style="edgeStyle=orthogonalEdgeStyle;rounded=0;orthogonalLoop=1;jettySize=auto;html=1;entryX=0;entryY=0.5;entryDx=0;entryDy=0;fontSize=8;fontColor=#33FF33;" edge="1" parent="1" target="LApeoLwm_qRs-wCRrDOX-125">
          <mxGeometry relative="1" as="geometry">
            <mxPoint x="284.99995408629127" y="1108.969696969697" as="sourcePoint" />
            <Array as="points">
              <mxPoint x="290" y="1109" />
              <mxPoint x="290" y="1064" />
            </Array>
          </mxGeometry>
        </mxCell>
        <mxCell id="LApeoLwm_qRs-wCRrDOX-127" style="edgeStyle=orthogonalEdgeStyle;rounded=0;orthogonalLoop=1;jettySize=auto;html=1;entryX=0;entryY=0.5;entryDx=0;entryDy=0;fontSize=8;fontColor=#33FF33;" edge="1" parent="1" target="LApeoLwm_qRs-wCRrDOX-123">
          <mxGeometry relative="1" as="geometry">
            <mxPoint x="284.99995408629127" y="1108.969696969697" as="sourcePoint" />
          </mxGeometry>
        </mxCell>
        <mxCell id="LApeoLwm_qRs-wCRrDOX-128" style="edgeStyle=orthogonalEdgeStyle;rounded=0;orthogonalLoop=1;jettySize=auto;html=1;entryX=0;entryY=0.5;entryDx=0;entryDy=0;fontSize=8;fontColor=#33FF33;" edge="1" parent="1" target="LApeoLwm_qRs-wCRrDOX-124">
          <mxGeometry relative="1" as="geometry">
            <mxPoint x="284.99995408629127" y="1108.969696969697" as="sourcePoint" />
            <Array as="points">
              <mxPoint x="290" y="1109" />
              <mxPoint x="290" y="1154" />
            </Array>
          </mxGeometry>
        </mxCell>
        <mxCell id="LApeoLwm_qRs-wCRrDOX-18" value="PPDB" style="ellipse;whiteSpace=wrap;html=1;" vertex="1" parent="1">
          <mxGeometry x="205" y="1089" width="80" height="40" as="geometry" />
        </mxCell>
        <mxCell id="LApeoLwm_qRs-wCRrDOX-30" value="" style="edgeStyle=orthogonalEdgeStyle;rounded=0;orthogonalLoop=1;jettySize=auto;html=1;fontSize=10;" edge="1" parent="1" source="LApeoLwm_qRs-wCRrDOX-29" target="55DzPYi0vMfy24qsopn5-3">
          <mxGeometry relative="1" as="geometry" />
        </mxCell>
        <mxCell id="LApeoLwm_qRs-wCRrDOX-29" value="" style="shape=waypoint;sketch=0;fillStyle=solid;size=6;pointerEvents=1;points=[];fillColor=#60a917;resizable=0;rotatable=0;perimeter=centerPerimeter;snapToPoint=1;fontSize=10;fontColor=#ffffff;strokeColor=#2D7600;" vertex="1" parent="1">
          <mxGeometry x="240" y="20" width="40" height="40" as="geometry" />
        </mxCell>
        <mxCell id="LApeoLwm_qRs-wCRrDOX-31" value="Akses Penuh" style="text;html=1;align=center;verticalAlign=middle;resizable=0;points=[];autosize=1;strokeColor=none;fillColor=none;fontSize=10;" vertex="1" parent="1">
          <mxGeometry x="85" y="780" width="80" height="30" as="geometry" />
        </mxCell>
        <mxCell id="LApeoLwm_qRs-wCRrDOX-74" value="&lt;font style=&quot;font-size: 10px;&quot;&gt;Profil&lt;/font&gt;" style="ellipse;whiteSpace=wrap;html=1;" vertex="1" parent="1">
          <mxGeometry x="320" y="410" width="60" height="30" as="geometry" />
        </mxCell>
        <mxCell id="LApeoLwm_qRs-wCRrDOX-75" value="&lt;font style=&quot;font-size: 10px;&quot;&gt;Pengguna&lt;/font&gt;" style="ellipse;whiteSpace=wrap;html=1;fontSize=10;" vertex="1" parent="1">
          <mxGeometry x="320" y="460" width="60" height="30" as="geometry" />
        </mxCell>
        <mxCell id="LApeoLwm_qRs-wCRrDOX-76" value="&lt;font style=&quot;font-size: 10px;&quot;&gt;Kelas&lt;/font&gt;" style="ellipse;whiteSpace=wrap;html=1;" vertex="1" parent="1">
          <mxGeometry x="320" y="505" width="60" height="30" as="geometry" />
        </mxCell>
        <mxCell id="LApeoLwm_qRs-wCRrDOX-77" value="&lt;font style=&quot;font-size: 10px;&quot;&gt;Guru&lt;/font&gt;" style="ellipse;whiteSpace=wrap;html=1;" vertex="1" parent="1">
          <mxGeometry x="320" y="550" width="60" height="30" as="geometry" />
        </mxCell>
        <mxCell id="LApeoLwm_qRs-wCRrDOX-78" value="&lt;font style=&quot;font-size: 10px;&quot;&gt;Jurusan&lt;/font&gt;" style="ellipse;whiteSpace=wrap;html=1;" vertex="1" parent="1">
          <mxGeometry x="320" y="600" width="60" height="30" as="geometry" />
        </mxCell>
        <mxCell id="LApeoLwm_qRs-wCRrDOX-87" value="&lt;font style=&quot;font-size: 10px;&quot;&gt;Buku Induk&lt;/font&gt;" style="ellipse;whiteSpace=wrap;html=1;" vertex="1" parent="1">
          <mxGeometry x="400" y="600" width="60" height="30" as="geometry" />
        </mxCell>
        <mxCell id="LApeoLwm_qRs-wCRrDOX-88" value="&lt;font style=&quot;font-size: 10px;&quot;&gt;Kartu Pelajar&lt;/font&gt;" style="ellipse;whiteSpace=wrap;html=1;fontSize=10;" vertex="1" parent="1">
          <mxGeometry x="400" y="645" width="60" height="30" as="geometry" />
        </mxCell>
        <mxCell id="LApeoLwm_qRs-wCRrDOX-89" value="&lt;font style=&quot;font-size: 10px;&quot;&gt;Kelulusan&lt;/font&gt;" style="ellipse;whiteSpace=wrap;html=1;" vertex="1" parent="1">
          <mxGeometry x="400" y="690" width="60" height="30" as="geometry" />
        </mxCell>
        <mxCell id="LApeoLwm_qRs-wCRrDOX-93" value="&lt;font style=&quot;font-size: 10px;&quot;&gt;Mutasi Masuk&lt;/font&gt;" style="ellipse;whiteSpace=wrap;html=1;" vertex="1" parent="1">
          <mxGeometry x="480" y="700" width="60" height="30" as="geometry" />
        </mxCell>
        <mxCell id="LApeoLwm_qRs-wCRrDOX-94" value="&lt;font style=&quot;font-size: 10px;&quot;&gt;Mutasi Keluar&lt;/font&gt;" style="ellipse;whiteSpace=wrap;html=1;fontSize=10;" vertex="1" parent="1">
          <mxGeometry x="480" y="745" width="60" height="30" as="geometry" />
        </mxCell>
        <mxCell id="LApeoLwm_qRs-wCRrDOX-95" value="&lt;font style=&quot;font-size: 10px;&quot;&gt;Cetak Data&lt;/font&gt;" style="ellipse;whiteSpace=wrap;html=1;" vertex="1" parent="1">
          <mxGeometry x="480" y="790" width="60" height="30" as="geometry" />
        </mxCell>
        <mxCell id="LApeoLwm_qRs-wCRrDOX-99" value="" style="edgeStyle=orthogonalEdgeStyle;rounded=0;orthogonalLoop=1;jettySize=auto;html=1;fontSize=10;fontColor=#33FF33;" edge="1" parent="1" target="LApeoLwm_qRs-wCRrDOX-106">
          <mxGeometry relative="1" as="geometry">
            <mxPoint x="539.9999054819298" y="880.0434782608695" as="sourcePoint" />
          </mxGeometry>
        </mxCell>
        <mxCell id="LApeoLwm_qRs-wCRrDOX-104" value="&lt;span style=&quot;font-size: 10px;&quot;&gt;Kelas 2&lt;/span&gt;" style="ellipse;whiteSpace=wrap;html=1;" vertex="1" parent="1">
          <mxGeometry x="575" y="770" width="60" height="30" as="geometry" />
        </mxCell>
        <mxCell id="LApeoLwm_qRs-wCRrDOX-105" value="Kelas 3" style="ellipse;whiteSpace=wrap;html=1;fontSize=10;" vertex="1" parent="1">
          <mxGeometry x="575" y="820" width="60" height="30" as="geometry" />
        </mxCell>
        <mxCell id="LApeoLwm_qRs-wCRrDOX-106" value="&lt;span style=&quot;font-size: 10px;&quot;&gt;Kelas 4&lt;/span&gt;" style="ellipse;whiteSpace=wrap;html=1;" vertex="1" parent="1">
          <mxGeometry x="575" y="865" width="60" height="30" as="geometry" />
        </mxCell>
        <mxCell id="LApeoLwm_qRs-wCRrDOX-107" value="&lt;span style=&quot;font-size: 10px;&quot;&gt;Kelas 5&lt;/span&gt;" style="ellipse;whiteSpace=wrap;html=1;" vertex="1" parent="1">
          <mxGeometry x="575" y="910" width="60" height="30" as="geometry" />
        </mxCell>
        <mxCell id="LApeoLwm_qRs-wCRrDOX-108" value="&lt;span style=&quot;font-size: 10px;&quot;&gt;Kelas 6&lt;/span&gt;" style="ellipse;whiteSpace=wrap;html=1;" vertex="1" parent="1">
          <mxGeometry x="575" y="960" width="60" height="30" as="geometry" />
        </mxCell>
        <mxCell id="LApeoLwm_qRs-wCRrDOX-109" value="&lt;font style=&quot;font-size: 10px;&quot;&gt;Semua Siswa&lt;/font&gt;" style="ellipse;whiteSpace=wrap;html=1;" vertex="1" parent="1">
          <mxGeometry x="575" y="630" width="60" height="30" as="geometry" />
        </mxCell>
        <mxCell id="LApeoLwm_qRs-wCRrDOX-110" value="&lt;font style=&quot;font-size: 8px;&quot;&gt;Belum Masuk Kelas&lt;/font&gt;" style="ellipse;whiteSpace=wrap;html=1;fontSize=8;" vertex="1" parent="1">
          <mxGeometry x="575" y="680" width="60" height="30" as="geometry" />
        </mxCell>
        <mxCell id="LApeoLwm_qRs-wCRrDOX-111" value="&lt;font style=&quot;font-size: 10px;&quot;&gt;Kelas 1&lt;/font&gt;" style="ellipse;whiteSpace=wrap;html=1;" vertex="1" parent="1">
          <mxGeometry x="575" y="725" width="60" height="30" as="geometry" />
        </mxCell>
        <mxCell id="LApeoLwm_qRs-wCRrDOX-119" value="&lt;font style=&quot;font-size: 10px;&quot;&gt;Beranda&lt;/font&gt;" style="ellipse;whiteSpace=wrap;html=1;" vertex="1" parent="1">
          <mxGeometry x="310" y="960" width="60" height="30" as="geometry" />
        </mxCell>
        <mxCell id="LApeoLwm_qRs-wCRrDOX-120" value="&lt;font style=&quot;font-size: 10px;&quot;&gt;Data Table&lt;/font&gt;" style="ellipse;whiteSpace=wrap;html=1;fontSize=10;" vertex="1" parent="1">
          <mxGeometry x="310" y="1010" width="60" height="30" as="geometry" />
        </mxCell>
        <mxCell id="LApeoLwm_qRs-wCRrDOX-123" value="&lt;font style=&quot;font-size: 10px;&quot;&gt;Pendaftar&lt;/font&gt;" style="ellipse;whiteSpace=wrap;html=1;" vertex="1" parent="1">
          <mxGeometry x="310" y="1094" width="60" height="30" as="geometry" />
        </mxCell>
        <mxCell id="LApeoLwm_qRs-wCRrDOX-124" value="&lt;font style=&quot;font-size: 10px;&quot;&gt;Diterima&lt;/font&gt;" style="ellipse;whiteSpace=wrap;html=1;fontSize=10;" vertex="1" parent="1">
          <mxGeometry x="310" y="1139" width="60" height="30" as="geometry" />
        </mxCell>
        <mxCell id="LApeoLwm_qRs-wCRrDOX-125" value="&lt;font style=&quot;font-size: 10px;&quot;&gt;Beranda&lt;/font&gt;" style="ellipse;whiteSpace=wrap;html=1;" vertex="1" parent="1">
          <mxGeometry x="310" y="1049" width="60" height="30" as="geometry" />
        </mxCell>
      </root>
    </mxGraphModel>
  </diagram>
</mxfile>
